
<global>
amp_veltrack=0
ampeg_release=0.85
</global>

<group>
group_label=PP
lpc_hicc1=42
lpc_locc1=0

<region>
hikey=B2
hivel=127
lokey=A#2
lovel=0
lpc=oTIVQ72RuMNp02ZDjJQOQU7EKEKjxWDCNE3gwNbDT8F5nNxAKTWoQHBnjEDp9Io/ipBnwOvGjsD60p9Aney4wL8sQUHKRSDA/ownwDfi1D7rYZ6/aMmUv/L8LsDzw2lA
lpc_rms=-49.06
offset=10791
pitch_keycenter=A#2
sample=Trombone_Marcato_Eighth_PP_A#3.opus
tune=-34
</region>

<region>
hikey=B3
hivel=127
lokey=A#3
lovel=0
lpc=m9QmQ4oQ0MP2KY9DsVyfwdcNIEK25Y7Cumg3QVhGNMBcTDFBV++JwLBoOMF+F0hBQirKwKHZpkA/Y9hA4WOxwHTfHEAp3eDADu8fwJVYo0CFGnw9nAvfQPENY8F+d+xA
lpc_rms=-47.32
offset=6707
pitch_keycenter=A#3
sample=Trombone_Marcato_Eighth_PP_A#4.opus
tune=-16
</region>

<region>
hikey=D#5
hivel=127
lokey=A#4
lovel=0
lpc=n7s+QwUDAcQyqN5DJ4zwwpOBx0JjtyzDrxCyQgGsFcLZ+0FC8VogwsW+TUGwgERBsmGSwZixJUGYPHlBAUzlwcxunUF87W3B0TlqQNcHx8CqhMxBhk4OwYJKtcEUeoZB
lpc_rms=-41.92
offset=11237
pitch_keycenter=A#4
sample=Trombone_Marcato_Eighth_PP_A#5.opus
tune=-23
</region>

<region>
hikey=C#3
hivel=127
lokey=C3
lovel=0
lpc=08qOQu9BG8N7mZBCK0ASQS6P3kHLcmDBMoWawGsGEcHRB+m/Nbo0vx+vY0DpJbA/bK8LP3wPMj+sr1a+sgwkvwdNEr1Uix4/1l8HPyTOJ8CaZDtAnAwMwBopnD3cDCs/
lpc_rms=-57.15
offset=5365
pitch_keycenter=C3
sample=Trombone_Marcato_Eighth_PP_C4.opus
tune=-6
</region>

<region>
hikey=C#4
hivel=127
lokey=C4
lovel=0
lpc=VovVQoIQfMPEKg5DcLxCQbhuA0KE8vXBYxwxwaGqLcGwKTpBN/k9wMKSOT+3sRfAjPQ4QHzuyj6pp29AceyTvxJ5pj9PHUPAN7hKv6H5+79ahgVAjugEQNNZnr/mxQe+
lpc_rms=-52.53
offset=10008
sample=Trombone_Marcato_Eighth_PP_C5.opus
tune=-13
</region>

<region>
hikey=D#3
hivel=127
lokey=D3
lovel=0
lpc=b/2lQkv0PMM6B9NCLyuZQL6csEGZ0LDBHIODwMTsmcAUPnBAYq9gPqlDxr8eiFVAhU8NwDwvJUCvQkLAOLIIQFFcFECiGfK/lli8v9m9hL3A1as/AKVXPwT7WMDhevo/
lpc_rms=-54.73
offset=3400
pitch_keycenter=D3
sample=Trombone_Marcato_Eighth_PP_D4.opus
tune=-8
</region>

<region>
hikey=D#4
hivel=127
lokey=D4
lovel=0
lpc=OVJgQxGdFcRih+NDQMwJwn4wEkJ/pPPCOYHZQToQn8CQfQFCtnrQwAWrkMHOsSRAQzA4PQ3WJ0EvmxdBNZ0QwTxOA8ErGRbAV1NBwVpHqkGYM31BpJ4VQSSzdMJ2KQVC
lpc_rms=-43.88
offset=6825
pitch_keycenter=D4
sample=Trombone_Marcato_Eighth_PP_D5.opus
tune=-24
</region>

<region>
hikey=F2
hivel=127
lokey=C1
lovel=0
lpc=mvKKQq+EL8M2Hv1CI3Rfwd0NeEG2KbLBrXaiv7gEY8AP05BAA64ZukItmb4miC9AGokGwC4Nxz4/roU/dOeAvtlJF0C0RZjAzPPIvi8wsT9AUjBA41gOwB/XGD75hhI+
lpc_rms=-54.36
offset=8713
pitch_keycenter=E2
sample=Trombone_Marcato_Eighth_PP_E3.opus
tune=-23
</region>

<region>
hikey=F3
hivel=127
lokey=E3
lovel=0
lpc=jPWoQrIqN8OpR7VC1l/rQFpX3kGDTbXBD58HwHE7osAt6RBAqBzUPwJ1RsCbACJAu1CGvxJzCj47QYi+LmGOvnJS1T8csQVAqryxv5JDDj4ZlwDAKFZjP0o7tL8bVKY/
lpc_rms=-55.45
offset=5239
pitch_keycenter=E3
sample=Trombone_Marcato_Eighth_PP_E4.opus
tune=-5
</region>

<region>
hikey=F4
hivel=127
lokey=E4
lovel=0
lpc=NovGQhYmh8NxtGBDMfEZwtMWQ0EfjD3CRaC4QWYtWMBpBoRAaGQNwdojVD9zyxlBLN+IwG64ib4i1QHAqRpxP39LUUA6wbM+yEzdwHRebrxYRHNAcuWrQJCr08DcXb8/
lpc_rms=-49.95
offset=7372
pitch_keycenter=E4
sample=Trombone_Marcato_Eighth_PP_E5.opus
tune=-24
</region>

<region>
hikey=G2
hivel=127
lokey=F#2
lovel=0
lpc=5faFQj9QCMNkiWhCcL6hQFEWuUEWOgTBcniFwPF51sALPCU/R48PP8Ghp76HdKw/26oZv57fMj5aXsw+uki6P1Ixjz65mYi+Hpdvv2FznL9liKO+WejlPgLXmj+4nNe+
lpc_rms=-58.51
offset=6298
pitch_keycenter=F#2
sample=Trombone_Marcato_Eighth_PP_F#3.opus
tune=-4
</region>

<region>
hikey=G3
hivel=127
lokey=F#3
lovel=0
lpc=trwLQ1avocOt9ztDmNTMv3CcOEIMnDzCUJwPQJiJrsDBVcY/p7CzwKLxjcD6FRZBGpxzQCflhD6iTzvA8dNCwK3wcEC0lJU+5yzzPwOVbsCxOIA9sVCZP0PyscBDMJ1A
lpc_rms=-50.11
offset=5606
pitch_keycenter=F#3
sample=Trombone_Marcato_Eighth_PP_F#4.opus
tune=-12
</region>

<region>
hikey=G4
hivel=127
lokey=F#4
lovel=0
lpc=iKfuQjFppcOdVIxDrStCwmhbnkFMwY3CkLDZQULd5r9EPnVBzn0HwVzASsDyYm5AVF/pwC4YXj+XDABBakg0wBUlmED8TgjAz9kJwenEN0AnhidA93K0QPZOHMGsboZA
lpc_rms=-48.28
offset=7859
pitch_keycenter=F#4
sample=Trombone_Marcato_Eighth_PP_F#5.opus
tune=-16
</region>

<region>
hikey=A2
hivel=127
lokey=G#2
lovel=0
lpc=aHV/QpDLBsNBCXVCFmboQLsZpkGGgDHBK3QlwNtP0cCVayc/SupWvn0ZPb+u8rc/PyuzPtUpbD/Uuqs/c16nvr7mMr8bA5C/MF9vPmzfU79YakA/BLSyPz9zAMDRt3Q/
lpc_rms=-58.53
offset=3148
pitch_keycenter=G#2
sample=Trombone_Marcato_Eighth_PP_G#3.opus
tune=-31
</region>

<region>
hikey=A3
hivel=127
lokey=G#3
lovel=0
lpc=wsvMQqvlcMMqvRJDMR+iPjGW0UE1chrCQU1NQOtv5cAkcApBwo6UP5A1xMDx+stAQj0AwABrk77h24ZA8D6lwAA9ZEBAFgHAzMhfwFWCFkBQkMg+dVOdQCJ/DcHcsI1A
lpc_rms=-52.43
offset=7036
pitch_keycenter=G#3
sample=Trombone_Marcato_Eighth_PP_G#4.opus
tune=-13
</region>

<region>
hikey=A4
hivel=127
lokey=G#4
lovel=0
lpc=GBbKQunUh8NcfWBDMb9BwsoPBUIgKHbC5srlQTGTQMFgbXVBHkBMwUO8FcCEwi5BFZQwwSKyGkGzotA+fy9BwAZNpz+5dLHAyS+zQKOHc8BLoyJA1jfvQNwifMH+8wFB
lpc_rms=-49.42
offset=4547
pitch_keycenter=G#4
sample=Trombone_Marcato_Eighth_PP_G#5.opus
tune=-26
</region>
</group>

<group>
group_label=MF
lpc_hicc1=84
lpc_locc1=43

<region>
hikey=B2
hivel=127
lokey=A#2
lovel=0
lpc=eVjVQqXTosPsjaxDmOYJw+pSNkKhtpvCtppuQjJGo8GwkjFBwJULwQW6QL/h44NA/QjyQCH/lMFT1nBBdgoPwR2RkEHnEdfBRsGWQeRfeMFLcLZBU8N3wYr+qr4EY0FA
lpc_rms=-45.04
offset=3383
pitch_keycenter=A#2
sample=Trombone_Marcato_Eighth_MF_A#3.opus
tune=-42
</region>

<region>
hikey=B3
hivel=127
lokey=A#3
lovel=0
lpc=v1+YQ5vnb8QBhXVEBLyHwxSGA0KZf03DhmXTQjYX5D9iTbhB2hODwIQjTMHHFItBMugGwgEay0HepyVBKusiwswKXUKh02HC4fsRQgxDh8FePChB0pKSwAYXC0C6Uce/
lpc_rms=-37.44
offset=1120
pitch_keycenter=A#3
sample=Trombone_Marcato_Eighth_MF_A#4.opus
tune=-26
</region>

<region>
hikey=D#5
hivel=127
lokey=A#4
lovel=0
lpc=8/ceQ+t098NATglEGq5yw5Sj3kKmfkLDeNcKQysYD8KQMlZC4r5Dwjru48G6S4BCjKcfwg/urcCLQIBCpJvZwty760K6Kp/C9uqLQcHyMcH6XhJCs0oPvhkHLsLTTMRB
lpc_rms=-37.09
offset=1896
pitch_keycenter=A#4
sample=Trombone_Marcato_Eighth_MF_A#5.opus
tune=-25
</region>

<region>
hikey=C#3
hivel=127
lokey=C3
lovel=0
lpc=u1uiQiRSe8OQqotDNYX2wu98vkGIu/XBzf4IQnpLgMH9qo9AknyVwHsX/T+8epdACZEVwHqNnsC02LFAYQ9awAD2CkED6ErBi6cWQRDqCMFSlOlAFOdxwES1M0BhzLa/
lpc_rms=-48.22
offset=4748
pitch_keycenter=C3
sample=Trombone_Marcato_Eighth_MF_C4.opus
tune=-4
</region>

<region>
hikey=C#4
hivel=127
lokey=C4
lovel=0
lpc=XyD0Qnqrz8NCj/5DGwxrw9yNCEI1MpXC4fiQQqRpNMAjGpZA1Cquwfarnr8eeoNBr7KLwZVqDkGAt5FBcZ3JwYvnf0EPQ7bBcfZcQWIN5UCxd9q/GGvbwOzSQD9aQ+0/
lpc_rms=-43.65
offset=7499
sample=Trombone_Marcato_Eighth_MF_C5.opus
tune=-14
</region>

<region>
hikey=D#3
hivel=127
lokey=D3
lovel=0
lpc=BhMWQyP+5sPssPFDhpQvwweTOkII87TC0ahRQtihS8GlaMlBkNTjwQCxgEFR67s/hgxDwXnxo0ACchrAQ70MQe3Wv0CHkevAO4CHwTymb0Frrv3AIyYxQR6XDsDXNx/A
lpc_rms=-43.03
offset=1284
pitch_keycenter=D3
sample=Trombone_Marcato_Eighth_MF_D4.opus
tune=-8
</region>

<region>
hikey=D#4
hivel=127
lokey=D4
lovel=0
lpc=l/xDQ+BXKcTaS1FEzFnCw9+Ki0JPQiTDLZorQyPG38ES80xBnY2EwiiVd0GcIYBCqRRVwpZLQ0HDdyFA0tf/wc50i0Ia5oTC1HkNQjDQgsF7vUVBUdxSwcEVMkHF7H7A
lpc_rms=-37.43
offset=1368
pitch_keycenter=D4
sample=Trombone_Marcato_Eighth_MF_D5.opus
tune=-20
</region>

<region>
hikey=F2
hivel=127
lokey=C1
lovel=0
lpc=hMIJQgdS88I57DxDTYIrw5Xt0ULW7FDCQlHjQY2BicGD3BNB1liRwAvvCkBIUks/5k6WwNjsdkDasjlASVsFwa+FJUHtbiXBu0oCQa2miMDVFSw/fyGhP7o0vb/eLCA/
lpc_rms=-48.67
offset=6769
pitch_keycenter=E2
sample=Trombone_Marcato_Eighth_MF_E3.opus
tune=-11
</region>

<region>
hikey=F3
hivel=127
lokey=E3
lovel=0
lpc=QDj+QmJjvsNVN8JDzN8Cw6VmnkH4+YbCphhqQl7hbcFebABBqkGGwdVn8j/Z18VBi6XLwYgnRECAt25BpN2HwdRR1kGFxQDCuQ+4QHZYAUErSOVA9zobwSwsO79xKBxA
lpc_rms=-44.89
offset=3692
pitch_keycenter=E3
sample=Trombone_Marcato_Eighth_MF_E4.opus
tune=-12
</region>

<region>
hikey=F4
hivel=127
lokey=E4
lovel=0
lpc=Mt8aQ3YZ98P0JwpEFLlsw7ZnmEIv+erCUu+vQlJ2RsIUmlxCEqRGwmDB1EFiRolBO4bswWGuUcGkChFCxKf4wQZJQEIM42fCvrTmQYbRtT6JgZnA2fmsvuMISkCQQd+/
lpc_rms=-39.99
offset=845
pitch_keycenter=E4
sample=Trombone_Marcato_Eighth_MF_E5.opus
tune=-13
</region>

<region>
hikey=G2
hivel=127
lokey=F#2
lovel=0
lpc=Vd+vQmkAbsP2CkdDKPIfwh87gUHnFhnCXAY9Qf8FzL+zI7lAXuvawNRilkCokDVA8X/Ev0xW98Aq8L1AjMRjQHguBMBZd+u+4lnivyQRnsC6nvxAiR8HQFrV6MBmYD9A
lpc_rms=-49.88
offset=5413
pitch_keycenter=F#2
sample=Trombone_Marcato_Eighth_MF_F#3.opus
tune=-21
</region>

<region>
hikey=G3
hivel=127
lokey=F#3
lovel=0
lpc=XAP5QvT5rsPcRJpDPZyDwnAzX0HLSmjCEmz+Qfm3TMGLiUZBbdC+v6JhRcEBHI1BSrDhwN/HDcGvqktBAdpEwRC2kUH6+mjBuZvpPybNvkAd/w/BfokqQQZmGcEOHHVA
lpc_rms=-47.11
offset=7612
pitch_keycenter=F#3
sample=Trombone_Marcato_Eighth_MF_F#4.opus
tune=-17
</region>

<region>
hikey=G4
hivel=127
lokey=F#4
lovel=0
lpc=7XgtQ+W/IMSln2NEMhIKxPSIwEJj6YzCXg43Q80m08KpcebAxGtkQOitmUHfAJ9BIyB3woYiIkJc78xBvaOcwsy0q0LZdHbCuzQsQlO2L8LJJg9ClBwhwdv8c8AsFPc/
lpc_rms=-36.41
offset=503
pitch_keycenter=F#4
sample=Trombone_Marcato_Eighth_MF_F#5.opus
tune=-5
</region>

<region>
hikey=A2
hivel=127
lokey=G#2
lovel=0
lpc=6ACXQp6Oe8N1I55D5WY0wxNEiEKffpDC0SKRQotFIcKjnrRB6ihrwTwO676Ka2lBtK1iwZLHzb8WuWpBow5kwS3jeEEusZ/BRLaEQXvbfcHD5qdBCrKRwSnT/kBTb6G/
lpc_rms=-44.98
offset=6904
pitch_keycenter=G#2
sample=Trombone_Marcato_Eighth_MF_G#3.opus
tune=-42
</region>

<region>
hikey=A3
hivel=127
lokey=G#3
lovel=0
lpc=9qrSQvMroMNjZKND6ojhwlLaMEKuqbnCPX+EQhqu/sFFnN1BmpvhwW6gr0EOZWVB+yIAwhM33EBUqItBCj8EwlqjCEKI9a/Bf6OIQWX3TsF/k+BASoC5wKH3cEDwmka/
lpc_rms=-44.09
offset=3565
pitch_keycenter=G#3
sample=Trombone_Marcato_Eighth_MF_G#4.opus
tune=-22
</region>

<region>
hikey=A4
hivel=127
lokey=G#4
lovel=0
lpc=SX3TQvPVq8OwBcVDE2UnwwmTS0L7DuDCZTGyQnXRF8HkB85Aex3TwbpwM0GF2bxBwpA+wmgx10GBtqxBgrtLwvGqb0KaZkTC48nGQWc818HHiDFCn+31wdtQTkACBVRA
lpc_rms=-41.13
pitch_keycenter=G#4
sample=Trombone_Marcato_Eighth_MF_G#5.opus
tune=-23
</region>
</group>

<group>
group_label=FF
lpc_hicc1=127
lpc_locc1=85

<region>
hikey=B2
hivel=127
lokey=A#2
lovel=0
lpc=G0RNQOzFo8Dbi19ANJsXwIWDAEB+DrO/pARtP1nuKr9jKAs/BWyFvj6s/T2FnWS9qL0+vYDsJb6G2RY/TtN6v9TCnj9b/Ii/IdZiP+mERb9mnT4/gkAcvxl5kT52JaS7
lpc_rms=-33.95
offset=1413
pitch_keycenter=A#2
sample=Trombone_Marcato_Eighth_FF_A#3.opus
tune=-33
</region>

<region>
hikey=B3
hivel=127
lokey=A#3
lovel=0
lpc=5M3QQK5AX8Hwx1NBJcAswf6WJUHL/wjBViK2QDyOZ8DdrzpAWsP0v3NNCT+Dmqm92wDxPdTUxb0yf+U+eSzdvwNaZECvW1vA0JjtPwCD0b9KP8U/ISe4vuiKIb9UTPE+
lpc_rms=-29.50
offset=2267
pitch_keycenter=A#3
sample=Trombone_Marcato_Eighth_FF_A#4.opus
tune=-19
</region>

<region>
hikey=D#5
hivel=127
lokey=A#4
lovel=0
lpc=/Qs2QL+ac8BlP+0/57qAv5BVsT/qloy/xfrtPnGAi7w5lhy+/jsqP37t5b7DpUG9RMNOPRiYbz4dzPU9NI6nvtiqJz9+BBC/5U2mPkGs573HO8U9APwZvm0K0L3jjEQ+
lpc_rms=-25.68
offset=3867
pitch_keycenter=A#4
sample=Trombone_Marcato_Eighth_FF_A#5.opus
tune=-18
</region>

<region>
hikey=C#3
hivel=127
lokey=C3
lovel=0
lpc=jTskQIWaZsDWzgZA5umsvwDkmT9J8D+/WT3zPkGZQr4jRvE9QizpvJHz4rzAwBA+/Lf6valw0LyOmpk+2ub0vmNjGT+ENwq/1/oBP+0Q+r7vUts+bd6LvqPfFD5WWDS9
lpc_rms=-35.40
offset=2181
pitch_keycenter=C3
sample=Trombone_Marcato_Eighth_FF_C4.opus
tune=+4
</region>

<region>
hikey=C#4
hivel=127
lokey=C4
lovel=0
lpc=IWyUQGg6CcF+g+dAkASvwKA0j0DwB1XAducxQLALBsAI6eA/p9azvwXYkj9+vQ+/dcYPPsTO8L2VBj8+MunovlxScT+qg2+/MiZlP+eQG7/WfiU+O3LkvUnogD59tNq9
lpc_rms=-32.30
offset=2465
sample=Trombone_Marcato_Eighth_FF_C5.opus
tune=-7
</region>

<region>
hikey=D#3
hivel=127
lokey=D3
lovel=0
lpc=ZOpDQD1yisCobRpAJsfRv3IdpD944EG/ih3jPsMFZ75/r0Q+K/iBPCYdyrsPtoi8nMyHPR0Mm74a4fc+x4c1v+SmXz+jSxe/5QcCPzCX+r4Tzc8+cCdIvgCU0T0vowG9
lpc_rms=-35.07
offset=1813
pitch_keycenter=D3
sample=Trombone_Marcato_Eighth_FF_D4.opus
tune=-17
</region>

<region>
hikey=D#4
hivel=127
lokey=D4
lovel=0
lpc=ASIEQdaumMGNY55BW4x3wfJ5TEFxYynBLuf6QGrcqcBPKn5AIlU9wE4OqT+Z3gQ/8XR3vyvviL6qxvg/ny4zwCHRM0BaR4O/f+6svwH16D+lNpC/AWOTP/fanr/fYy4/
lpc_rms=-29.12
offset=4936
pitch_keycenter=D4
sample=Trombone_Marcato_Eighth_FF_D5.opus
tune=-11
</region>

<region>
hikey=F2
hivel=127
lokey=C1
lovel=0
lpc=OjgpQYOz18FksvlBUG7VwWMfs0GnvYzBy1JIQbj7BMFEYbpAJM2WwDS0d0Ca6CXArcbLP7ENBsAXaXlAWT6rwL9gyEC0Ks7ABM27QEFklcBFsVJAFaH+v0xOTj8yUbC9
lpc_rms=-42.61
offset=1731
pitch_keycenter=E2
sample=Trombone_Marcato_Eighth_FF_E3.opus
tune=-5
</region>

<region>
hikey=F3
hivel=127
lokey=E3
lovel=0
lpc=XffXQHXaZMEDG1pBjfopwUIzFUGLyO3Aqg2uQIuxbcAx3i1A5Zfhv5XoEj9kXBM/NpE7v9BUNT7bvCw/ayjVvwvfJUCqZhXA+yPwP1fM6r+hHfM//Z24v/dYKT8u9cs8
lpc_rms=-33.42
offset=1332
pitch_keycenter=E3
sample=Trombone_Marcato_Eighth_FF_E4.opus
tune=-12
</region>

<region>
hikey=F4
hivel=127
lokey=E4
lovel=0
lpc=nRQWQbDRssHv/MNBuEeiwUCUkEEffXnB0Mc0Qd8cAcEiEQJBXeTvwPO6jUA6HJS/PGemPqBSTb/OjLc/53xBwM0vukDb5b3A2veGQO4PiMCkQp1AV6dlwOTT5T9ujda+
lpc_rms=-31.40
offset=3454
pitch_keycenter=E4
sample=Trombone_Marcato_Eighth_FF_E5.opus
tune=-14
</region>

<region>
hikey=G2
hivel=127
lokey=F#2
lovel=0
lpc=lDSdQHZ7HMGNAgxBFLbUwP4cskDSiIPA0CUwQN8O6L9yKsM/5fyivyiWQz9ydNO+y+qkPqRuAL9InIU/sK7cvz3/DkCevxLALDcGQKJ03b+ygLE/+8iAv3Ji+D4kqLO9
lpc_rms=-41.53
offset=2546
pitch_keycenter=F#2
sample=Trombone_Marcato_Eighth_FF_F#3.opus
tune=-7
</region>

<region>
hikey=G3
hivel=127
lokey=F#3
lovel=0
lpc=XPB4QE334MDRvbxAAI+TwFlRcUA4Qi3A+wf/P99iuL9iXqU/Q4x8v+9g1T4Pppy9FBkCvgjSQzsf1AM/sy6Gvw7Bkj/QnIW/DwyNPxxmbL+e6TU/3bbevrKqSz5g0JW9
lpc_rms=-33.69
offset=1822
pitch_keycenter=F#3
sample=Trombone_Marcato_Eighth_FF_F#4.opus
tune=-15
</region>

<region>
hikey=A2
hivel=127
lokey=G#2
lovel=0
lpc=EwBwQIPL1sBvjK9A+JaCwNgyaED5/C7Af9DzPxfdl7+dp2M/6OoavwPD8T2W9ZI+10jKvqR/az5qEik+G7UHv+CrXD9OeE2/k4gaP/UiAr/YNv8+K3qnvhAzpT16jYy9
lpc_rms=-37.86
offset=500
pitch_keycenter=G#2
sample=Trombone_Marcato_Eighth_FF_G#3.opus
tune=-18
</region>

<region>
hikey=A3
hivel=127
lokey=G#3
lovel=0
lpc=NBiyQEIOQME0iERBSwsjwZBbDUHs6+fAzKuvQMnBgsCzvVxAsjpFwG1rLUCvHby/6dKFPk4LBj4GbvM+5bbOv+AeCkA9wey/PZ/MP3K8xL9QK48/CAdMv0L/aD9Lvf++
lpc_rms=-32.22
offset=1488
pitch_keycenter=G#3
sample=Trombone_Marcato_Eighth_FF_G#4.opus
tune=-22
</region>

<region>
hikey=A4
hivel=127
lokey=F#4
lovel=0
lpc=eXrCQBzdL8Gn+AlBekLawHNd0ECrKoLAPxAnQNZQ/78s/M0/KezWv4fj8D/lpqG/t+V3P5RgpD3yHJq+2JG0v/sAF0DzXP6/d15AQGUqPMDkj8c/Rn8ov53GQD6t5Yw9
lpc_rms=-25.73
offset=707
pitch_keycenter=G#4
sample=Trombone_Marcato_Eighth_FF_G#5.opus
tune=-34
</region>
</group>

<group>
group_label=RR1
seq_length=4
seq_position=1

<region>
hivel=42
key=G4
lovel=0
sample=Trombone_staccato_PP_G3_RR1.opus
tune=-20
</region>

<region>
hivel=42
key=G3
lovel=0
offset=935
sample=Trombone_staccato_PP_G2_RR1.opus
tune=-4
</region>

<region>
hivel=42
key=G2
lovel=0
sample=Trombone_staccato_PP_G1_RR1.opus
tune=-8
</region>

<region>
hivel=42
key=G#4
lovel=0
offset=489
sample=Trombone_staccato_PP_G#3_RR1.opus
tune=-25
</region>

<region>
hivel=42
key=G#3
lovel=0
offset=456
sample=Trombone_staccato_PP_G#2_RR1.opus
tune=-2
</region>

<region>
hivel=42
key=G#2
lovel=0
offset=854
sample=Trombone_staccato_PP_G#1_RR1.opus
tune=-14
</region>

<region>
hivel=42
key=F4
lovel=0
offset=835
sample=Trombone_staccato_PP_F3_RR1.opus
tune=-28
</region>

<region>
hivel=42
key=F3
lovel=0
offset=1710
sample=Trombone_staccato_PP_F2_RR1.opus
tune=-25
</region>

<region>
hivel=42
key=F2
lovel=0
sample=Trombone_staccato_PP_F1_RR1.opus
tune=-6
</region>

<region>
hivel=42
key=F#4
lovel=0
sample=Trombone_staccato_PP_F#3_RR1.opus
tune=-33
</region>

<region>
hivel=42
key=F#3
lovel=0
offset=826
sample=Trombone_staccato_PP_F#2_RR1.opus
tune=+3
</region>

<region>
hivel=42
key=F#2
lovel=0
offset=2064
sample=Trombone_staccato_PP_F#1_RR1.opus
tune=-7
</region>

<region>
hivel=42
key=E4
lovel=0
offset=169
sample=Trombone_staccato_PP_E3_RR1.opus
tune=-11
</region>

<region>
hivel=42
key=E3
lovel=0
offset=1406
sample=Trombone_staccato_PP_E2_RR1.opus
tune=-15
</region>

<region>
hikey=E2
hivel=42
lokey=C1
lovel=0
offset=4419
pitch_keycenter=E2
sample=Trombone_staccato_PP_E1_RR1.opus
tune=-8
</region>

<region>
hivel=42
key=D4
lovel=0
offset=516
sample=Trombone_staccato_PP_D3_RR1.opus
tune=-23
</region>

<region>
hivel=42
key=D3
lovel=0
sample=Trombone_staccato_PP_D2_RR1.opus
tune=-16
</region>

<region>
hivel=42
key=D#4
lovel=0
offset=507
sample=Trombone_staccato_PP_D#3_RR1.opus
tune=-25
</region>

<region>
hivel=42
key=D#3
lovel=0
offset=454
sample=Trombone_staccato_PP_D#2_RR1.opus
tune=-5
</region>

<region>
hikey=D#5
hivel=42
lokey=C5
lovel=0
offset=911
pitch_keycenter=C5
sample=Trombone_staccato_PP_C4_RR1.opus
tune=-21
</region>

<region>
hikey=C4
hivel=42
lokey=C4
lovel=0
offset=770
sample=Trombone_staccato_PP_C3_RR1.opus
tune=-22
</region>

<region>
hivel=42
key=C3
lovel=0
offset=244
sample=Trombone_staccato_PP_C2_RR1.opus
tune=+15
</region>

<region>
hivel=42
key=C#4
lovel=0
offset=1581
sample=Trombone_staccato_PP_C#3_RR1.opus
tune=-13
</region>

<region>
hivel=42
key=C#3
lovel=0
offset=3580
sample=Trombone_staccato_PP_C#2_RR1.opus
tune=+3
</region>

<region>
hivel=42
key=B4
lovel=0
offset=1286
sample=Trombone_staccato_PP_B3_RR1.opus
tune=-14
</region>

<region>
hivel=42
key=B3
lovel=0
offset=1129
sample=Trombone_staccato_PP_B2_RR1.opus
tune=+5
</region>

<region>
hivel=42
key=B2
lovel=0
offset=362
sample=Trombone_staccato_PP_B1_RR1.opus
tune=-2
</region>

<region>
hivel=42
key=A4
lovel=0
offset=225
sample=Trombone_staccato_PP_A3_RR1.opus
tune=-18
</region>

<region>
hivel=42
key=A3
lovel=0
offset=605
sample=Trombone_staccato_PP_A2_RR1.opus
tune=-12
</region>

<region>
hivel=42
key=A2
lovel=0
sample=Trombone_staccato_PP_A1_RR1.opus
tune=-12
</region>

<region>
hivel=42
key=A#4
lovel=0
offset=314
sample=Trombone_staccato_PP_A#3_RR1.opus
tune=-27
</region>

<region>
hivel=42
key=A#3
lovel=0
offset=144
sample=Trombone_staccato_PP_A#2_RR1.opus
tune=+14
</region>

<region>
hivel=42
key=A#2
lovel=0
offset=3446
sample=Trombone_staccato_PP_A#1_RR1.opus
tune=-9
</region>

<region>
hivel=86
key=G4
lovel=43
offset=103
sample=Trombone_staccato_MF_G3_RR1.opus
tune=-19
</region>

<region>
hivel=86
key=G3
lovel=43
sample=Trombone_staccato_MF_G2_RR1.opus
tune=-8
</region>

<region>
hivel=86
key=G2
lovel=43
offset=1019
sample=Trombone_staccato_MF_G1_RR1.opus
tune=-25
</region>

<region>
hivel=86
key=G#4
lovel=43
offset=748
sample=Trombone_staccato_MF_G#3_RR1.opus
tune=-26
</region>

<region>
hivel=86
key=G#3
lovel=43
offset=690
sample=Trombone_staccato_MF_G#2_RR1.opus
tune=+2
</region>

<region>
hivel=86
key=G#2
lovel=43
offset=1340
sample=Trombone_staccato_MF_G#1_RR1.opus
tune=-35
</region>

<region>
hivel=86
key=F4
lovel=43
offset=781
sample=Trombone_staccato_MF_F3_RR1.opus
tune=-17
</region>

<region>
hivel=86
key=F3
lovel=43
offset=1103
sample=Trombone_staccato_MF_F2_RR1.opus
tune=-32
</region>

<region>
hivel=86
key=F2
lovel=43
offset=1811
sample=Trombone_staccato_MF_F1_RR1.opus
tune=-8
</region>

<region>
hivel=86
key=F#4
lovel=43
offset=304
sample=Trombone_staccato_MF_F#3_RR1.opus
tune=-15
</region>

<region>
hivel=86
key=F#3
lovel=43
offset=1122
sample=Trombone_staccato_MF_F#2_RR1.opus
tune=-13
</region>

<region>
hivel=86
key=F#2
lovel=43
offset=2043
sample=Trombone_staccato_MF_F#1_RR1.opus
tune=-26
</region>

<region>
hivel=86
key=E4
lovel=43
offset=787
sample=Trombone_staccato_MF_E3_RR1.opus
tune=-12
</region>

<region>
hivel=86
key=E3
lovel=43
offset=132
sample=Trombone_staccato_MF_E2_RR1.opus
tune=-19
</region>

<region>
hikey=E2
hivel=86
lokey=C1
lovel=43
offset=1818
pitch_keycenter=E2
sample=Trombone_staccato_MF_E1_RR1.opus
tune=-17
</region>

<region>
hivel=86
key=D4
lovel=43
offset=498
sample=Trombone_staccato_MF_D3_RR1.opus
tune=-17
</region>

<region>
hivel=86
key=D3
lovel=43
offset=241
sample=Trombone_staccato_MF_D2_RR1.opus
tune=-12
</region>

<region>
hivel=86
key=D#4
lovel=43
offset=896
sample=Trombone_staccato_MF_D#3_RR1.opus
tune=-17
</region>

<region>
hivel=86
key=D#3
lovel=43
offset=457
sample=Trombone_staccato_MF_D#2_RR1.opus
tune=-28
</region>

<region>
hikey=D#5
hivel=86
lokey=C5
lovel=43
offset=174
pitch_keycenter=C5
sample=Trombone_staccato_MF_C4_RR1.opus
tune=-14
</region>

<region>
hikey=C4
hivel=86
lokey=C4
lovel=43
offset=848
sample=Trombone_staccato_MF_C3_RR1.opus
tune=-6
</region>

<region>
hivel=86
key=C3
lovel=43
offset=910
sample=Trombone_staccato_MF_C2_RR1.opus
</region>

<region>
hivel=86
key=C#4
lovel=43
offset=587
sample=Trombone_staccato_MF_C#3_RR1.opus
tune=-2
</region>

<region>
hivel=86
key=C#3
lovel=43
offset=235
sample=Trombone_staccato_MF_C#2_RR1.opus
tune=-25
</region>

<region>
hivel=86
key=B4
lovel=43
offset=811
sample=Trombone_staccato_MF_B3_RR1.opus
tune=-4
</region>

<region>
hivel=86
key=B3
lovel=43
sample=Trombone_staccato_MF_B2_RR1.opus
tune=-3
</region>

<region>
hivel=86
key=B2
lovel=43
offset=634
sample=Trombone_staccato_MF_B1_RR1.opus
tune=-30
</region>

<region>
hivel=86
key=A4
lovel=43
offset=836
sample=Trombone_staccato_MF_A3_RR1.opus
tune=-20
</region>

<region>
hivel=86
key=A3
lovel=43
sample=Trombone_staccato_MF_A2_RR1.opus
tune=-8
</region>

<region>
hivel=86
key=A2
lovel=43
offset=388
sample=Trombone_staccato_MF_A1_RR1.opus
tune=-30
</region>

<region>
hivel=86
key=A#4
lovel=43
offset=233
sample=Trombone_staccato_MF_A#3_RR1.opus
tune=-13
</region>

<region>
hivel=86
key=A#3
lovel=43
offset=341
sample=Trombone_staccato_MF_A#2_RR1.opus
tune=-10
</region>

<region>
hivel=86
key=A#2
lovel=43
offset=1188
sample=Trombone_staccato_MF_A#1_RR1.opus
tune=-27
</region>

<region>
hivel=127
key=G4
lovel=87
offset=954
sample=Trombone_staccato_FF_G3_RR1.opus
tune=-10
</region>

<region>
hivel=127
key=G3
lovel=87
offset=299
sample=Trombone_staccato_FF_G2_RR1.opus
tune=-2
</region>

<region>
hivel=127
key=G2
lovel=87
offset=501
sample=Trombone_staccato_FF_G1_RR1.opus
tune=-11
</region>

<region>
hivel=127
key=G#4
lovel=87
offset=548
sample=Trombone_staccato_FF_G#3_RR1.opus
tune=-16
</region>

<region>
hivel=127
key=G#3
lovel=87
offset=826
sample=Trombone_staccato_FF_G#2_RR1.opus
tune=-23
</region>

<region>
hivel=127
key=G#2
lovel=87
offset=966
sample=Trombone_staccato_FF_G#1_RR1.opus
tune=-11
</region>

<region>
hivel=127
key=F4
lovel=87
offset=479
sample=Trombone_staccato_FF_F3_RR1.opus
tune=-20
</region>

<region>
hivel=127
key=F3
lovel=87
offset=360
sample=Trombone_staccato_FF_F2_RR1.opus
tune=-10
</region>

<region>
hivel=127
key=F2
lovel=87
offset=175
sample=Trombone_staccato_FF_F1_RR1.opus
</region>

<region>
hivel=127
key=F#4
lovel=87
offset=429
sample=Trombone_staccato_FF_F#3_RR1.opus
tune=-21
</region>

<region>
hivel=127
key=F#3
lovel=87
sample=Trombone_staccato_FF_F#2_RR1.opus
tune=+8
</region>

<region>
hivel=127
key=F#2
lovel=87
offset=461
sample=Trombone_staccato_FF_F#1_RR1.opus
tune=-19
</region>

<region>
hivel=127
key=E4
lovel=87
offset=1117
sample=Trombone_staccato_FF_E3_RR1.opus
tune=-15
</region>

<region>
hivel=127
key=E3
lovel=87
offset=313
sample=Trombone_staccato_FF_E2_RR1.opus
tune=-15
</region>

<region>
hikey=E2
hivel=127
lokey=C1
lovel=87
offset=693
pitch_keycenter=E2
sample=Trombone_staccato_FF_E1_RR1.opus
tune=-17
</region>

<region>
hivel=127
key=D4
lovel=87
offset=192
sample=Trombone_staccato_FF_D3_RR1.opus
tune=+3
</region>

<region>
hivel=127
key=D3
lovel=87
offset=854
sample=Trombone_staccato_FF_D2_RR1.opus
tune=-3
</region>

<region>
hivel=127
key=D#4
lovel=87
offset=478
sample=Trombone_staccato_FF_D#3_RR1.opus
tune=-17
</region>

<region>
hivel=127
key=D#3
lovel=87
sample=Trombone_staccato_FF_D#2_RR1.opus
tune=-12
</region>

<region>
hikey=D#5
hivel=127
lokey=C5
lovel=87
offset=1269
pitch_keycenter=C5
sample=Trombone_staccato_FF_C4_RR1.opus
tune=-22
</region>

<region>
hikey=C4
hivel=127
lokey=C4
lovel=87
offset=294
sample=Trombone_staccato_FF_C3_RR1.opus
tune=-1
</region>

<region>
hivel=127
key=C3
lovel=87
offset=621
sample=Trombone_staccato_FF_C2_RR1.opus
tune=+2
</region>

<region>
hivel=127
key=C#4
lovel=87
offset=432
sample=Trombone_staccato_FF_C#3_RR1.opus
tune=+5
</region>

<region>
hivel=127
key=C#3
lovel=87
offset=253
sample=Trombone_staccato_FF_C#2_RR1.opus
tune=-7
</region>

<region>
hivel=127
key=B4
lovel=87
offset=1589
sample=Trombone_staccato_FF_B3_RR1.opus
tune=-10
</region>

<region>
hivel=127
key=B3
lovel=87
offset=526
sample=Trombone_staccato_FF_B2_RR1.opus
tune=+3
</region>

<region>
hivel=127
key=B2
lovel=87
offset=698
sample=Trombone_staccato_FF_B1_RR1.opus
tune=-6
</region>

<region>
hivel=127
key=A4
lovel=87
offset=886
sample=Trombone_staccato_FF_A3_RR1.opus
tune=-13
</region>

<region>
hivel=127
key=A3
lovel=87
offset=673
sample=Trombone_staccato_FF_A2_RR1.opus
tune=-8
</region>

<region>
hivel=127
key=A2
lovel=87
offset=410
sample=Trombone_staccato_FF_A1_RR1.opus
tune=-12
</region>

<region>
hivel=127
key=A#4
lovel=87
offset=335
sample=Trombone_staccato_FF_A#3_RR1.opus
tune=-7
</region>

<region>
hivel=127
key=A#3
lovel=87
offset=363
sample=Trombone_staccato_FF_A#2_RR1.opus
tune=-1
</region>

<region>
hivel=127
key=A#2
lovel=87
offset=354
sample=Trombone_staccato_FF_A#1_RR1.opus
tune=-19
</region>
</group>

<group>
group_label=RR2
seq_length=4
seq_position=2

<region>
hivel=42
key=G4
lovel=0
offset=6115
sample=Trombone_staccato_PP_G3_RR2.opus
tune=-23
</region>

<region>
hivel=42
key=G3
lovel=0
offset=5776
sample=Trombone_staccato_PP_G2_RR2.opus
tune=-13
</region>

<region>
hivel=42
key=G2
lovel=0
offset=934
sample=Trombone_staccato_PP_G1_RR2.opus
tune=-9
</region>

<region>
hivel=42
key=G#4
lovel=0
offset=7496
sample=Trombone_staccato_PP_G#3_RR2.opus
tune=-32
</region>

<region>
hivel=42
key=G#3
lovel=0
offset=5362
sample=Trombone_staccato_PP_G#2_RR2.opus
tune=-8
</region>

<region>
hivel=42
key=G#2
lovel=0
offset=2888
sample=Trombone_staccato_PP_G#1_RR2.opus
tune=-15
</region>

<region>
hivel=42
key=F4
lovel=0
offset=803
sample=Trombone_staccato_PP_F3_RR2.opus
tune=-33
</region>

<region>
hivel=42
key=F3
lovel=0
offset=2867
sample=Trombone_staccato_PP_F2_RR2.opus
tune=-15
</region>

<region>
hivel=42
key=F2
lovel=0
offset=2152
sample=Trombone_staccato_PP_F1_RR2.opus
tune=-8
</region>

<region>
hivel=42
key=F#4
lovel=0
offset=183
sample=Trombone_staccato_PP_F#3_RR2.opus
tune=-41
</region>

<region>
hivel=42
key=F#3
lovel=0
offset=4809
sample=Trombone_staccato_PP_F#2_RR2.opus
tune=-2
</region>

<region>
hivel=42
key=F#2
lovel=0
offset=5645
sample=Trombone_staccato_PP_F#1_RR2.opus
tune=-8
</region>

<region>
hivel=42
key=E4
lovel=0
offset=7067
sample=Trombone_staccato_PP_E3_RR2.opus
tune=-16
</region>

<region>
hivel=42
key=E3
lovel=0
offset=1136
sample=Trombone_staccato_PP_E2_RR2.opus
tune=-20
</region>

<region>
hikey=E2
hivel=42
lokey=C1
lovel=0
offset=6648
pitch_keycenter=E2
sample=Trombone_staccato_PP_E1_RR2.opus
tune=-16
</region>

<region>
hivel=42
key=D4
lovel=0
offset=707
sample=Trombone_staccato_PP_D3_RR2.opus
tune=-25
</region>

<region>
hivel=42
key=D3
lovel=0
offset=3601
sample=Trombone_staccato_PP_D2_RR2.opus
tune=-16
</region>

<region>
hivel=42
key=D#4
lovel=0
offset=10451
sample=Trombone_staccato_PP_D#3_RR2.opus
tune=-33
</region>

<region>
hivel=42
key=D#3
lovel=0
offset=6262
sample=Trombone_staccato_PP_D#2_RR2.opus
tune=+2
</region>

<region>
hikey=D#5
hivel=42
lokey=C5
lovel=0
offset=419
pitch_keycenter=C5
sample=Trombone_staccato_PP_C4_RR2.opus
tune=-25
</region>

<region>
hikey=C4
hivel=42
lokey=C4
lovel=0
offset=7723
sample=Trombone_staccato_PP_C3_RR2.opus
tune=-20
</region>

<region>
hivel=42
key=C3
lovel=0
offset=4646
sample=Trombone_staccato_PP_C2_RR2.opus
tune=+19
</region>

<region>
hivel=42
key=C#4
lovel=0
offset=1508
sample=Trombone_staccato_PP_C#3_RR2.opus
tune=-16
</region>

<region>
hivel=42
key=C#3
lovel=0
offset=3717
sample=Trombone_staccato_PP_C#2_RR2.opus
tune=-2
</region>

<region>
hivel=42
key=B4
lovel=0
sample=Trombone_staccato_PP_B3_RR2.opus
tune=-26
</region>

<region>
hivel=42
key=B3
lovel=0
offset=478
sample=Trombone_staccato_PP_B2_RR2.opus
tune=+3
</region>

<region>
hivel=42
key=B2
lovel=0
offset=5459
sample=Trombone_staccato_PP_B1_RR2.opus
tune=-3
</region>

<region>
hivel=42
key=A4
lovel=0
sample=Trombone_staccato_PP_A3_RR2.opus
tune=-18
</region>

<region>
hivel=42
key=A3
lovel=0
offset=7017
sample=Trombone_staccato_PP_A2_RR2.opus
tune=-6
</region>

<region>
hivel=42
key=A2
lovel=0
offset=2477
sample=Trombone_staccato_PP_A1_RR2.opus
tune=-6
</region>

<region>
hivel=42
key=A#4
lovel=0
offset=8525
sample=Trombone_staccato_PP_A#3_RR2.opus
tune=-26
</region>

<region>
hivel=42
key=A#3
lovel=0
offset=342
sample=Trombone_staccato_PP_A#2_RR2.opus
tune=+6
</region>

<region>
hivel=42
key=A#2
lovel=0
offset=5932
sample=Trombone_staccato_PP_A#1_RR2.opus
tune=+1
</region>

<region>
hivel=86
key=G4
lovel=43
offset=38
sample=Trombone_staccato_MF_G3_RR2.opus
tune=-15
</region>

<region>
hivel=86
key=G3
lovel=43
offset=17
sample=Trombone_staccato_MF_G2_RR2.opus
tune=-7
</region>

<region>
hivel=86
key=G2
lovel=43
offset=1353
sample=Trombone_staccato_MF_G1_RR2.opus
tune=-28
</region>

<region>
hivel=86
key=G#4
lovel=43
offset=796
sample=Trombone_staccato_MF_G#3_RR2.opus
tune=-31
</region>

<region>
hivel=86
key=G#3
lovel=43
offset=480
sample=Trombone_staccato_MF_G#2_RR2.opus
</region>

<region>
hivel=86
key=G#2
lovel=43
offset=2213
sample=Trombone_staccato_MF_G#1_RR2.opus
tune=-39
</region>

<region>
hivel=86
key=F4
lovel=43
offset=1048
sample=Trombone_staccato_MF_F3_RR2.opus
tune=-17
</region>

<region>
hivel=86
key=F3
lovel=43
sample=Trombone_staccato_MF_F2_RR2.opus
tune=-30
</region>

<region>
hivel=86
key=F2
lovel=43
offset=6314
sample=Trombone_staccato_MF_F1_RR2.opus
tune=-13
</region>

<region>
hivel=86
key=F#4
lovel=43
offset=412
sample=Trombone_staccato_MF_F#3_RR2.opus
tune=-19
</region>

<region>
hivel=86
key=F#3
lovel=43
offset=795
sample=Trombone_staccato_MF_F#2_RR2.opus
tune=-16
</region>

<region>
hivel=86
key=F#2
lovel=43
offset=6386
sample=Trombone_staccato_MF_F#1_RR2.opus
tune=-33
</region>

<region>
hivel=86
key=E4
lovel=43
offset=8260
sample=Trombone_staccato_MF_E3_RR2.opus
tune=-16
</region>

<region>
hivel=86
key=E3
lovel=43
offset=6298
sample=Trombone_staccato_MF_E2_RR2.opus
tune=-21
</region>

<region>
hikey=E2
hivel=86
lokey=C1
lovel=43
offset=1280
pitch_keycenter=E2
sample=Trombone_staccato_MF_E1_RR2.opus
tune=-24
</region>

<region>
hivel=86
key=D4
lovel=43
offset=214
sample=Trombone_staccato_MF_D3_RR2.opus
tune=-18
</region>

<region>
hivel=86
key=D3
lovel=43
offset=835
sample=Trombone_staccato_MF_D2_RR2.opus
tune=-18
</region>

<region>
hivel=86
key=D#4
lovel=43
offset=7942
sample=Trombone_staccato_MF_D#3_RR2.opus
tune=-24
</region>

<region>
hivel=86
key=D#3
lovel=43
offset=788
sample=Trombone_staccato_MF_D#2_RR2.opus
tune=-30
</region>

<region>
hikey=D#5
hivel=86
lokey=C5
lovel=43
offset=6718
pitch_keycenter=C5
sample=Trombone_staccato_MF_C4_RR2.opus
tune=-15
</region>

<region>
hikey=C4
hivel=86
lokey=C4
lovel=43
offset=7989
sample=Trombone_staccato_MF_C3_RR2.opus
tune=-9
</region>

<region>
hivel=86
key=C3
lovel=43
offset=617
sample=Trombone_staccato_MF_C2_RR2.opus
tune=-4
</region>

<region>
hivel=86
key=C#4
lovel=43
offset=9922
sample=Trombone_staccato_MF_C#3_RR2.opus
tune=-4
</region>

<region>
hivel=86
key=C#3
lovel=43
offset=7328
sample=Trombone_staccato_MF_C#2_RR2.opus
tune=-24
</region>

<region>
hivel=86
key=B4
lovel=43
offset=463
sample=Trombone_staccato_MF_B3_RR2.opus
tune=-17
</region>

<region>
hivel=86
key=B3
lovel=43
offset=7322
sample=Trombone_staccato_MF_B2_RR2.opus
tune=-3
</region>

<region>
hivel=86
key=B2
lovel=43
offset=4513
sample=Trombone_staccato_MF_B1_RR2.opus
tune=-32
</region>

<region>
hivel=86
key=A4
lovel=43
offset=765
sample=Trombone_staccato_MF_A3_RR2.opus
tune=-25
</region>

<region>
hivel=86
key=A3
lovel=43
sample=Trombone_staccato_MF_A2_RR2.opus
tune=-12
</region>

<region>
hivel=86
key=A2
lovel=43
offset=4500
sample=Trombone_staccato_MF_A1_RR2.opus
tune=-26
</region>

<region>
hivel=86
key=A#4
lovel=43
offset=7210
sample=Trombone_staccato_MF_A#3_RR2.opus
tune=-17
</region>

<region>
hivel=86
key=A#3
lovel=43
offset=54
sample=Trombone_staccato_MF_A#2_RR2.opus
tune=-11
</region>

<region>
hivel=86
key=A#2
lovel=43
offset=355
sample=Trombone_staccato_MF_A#1_RR2.opus
tune=-21
</region>

<region>
hivel=127
key=G4
lovel=87
offset=5949
sample=Trombone_staccato_FF_G3_RR2.opus
tune=-16
</region>

<region>
hivel=127
key=G3
lovel=87
offset=8875
sample=Trombone_staccato_FF_G2_RR2.opus
tune=-5
</region>

<region>
hivel=127
key=G2
lovel=87
offset=503
sample=Trombone_staccato_FF_G1_RR2.opus
tune=-16
</region>

<region>
hivel=127
key=G#4
lovel=87
offset=6583
sample=Trombone_staccato_FF_G#3_RR2.opus
tune=-20
</region>

<region>
hivel=127
key=G#3
lovel=87
offset=596
sample=Trombone_staccato_FF_G#2_RR2.opus
tune=-27
</region>

<region>
hivel=127
key=G#2
lovel=87
offset=464
sample=Trombone_staccato_FF_G#1_RR2.opus
tune=-21
</region>

<region>
hivel=127
key=F4
lovel=87
offset=9331
sample=Trombone_staccato_FF_F3_RR2.opus
tune=-22
</region>

<region>
hivel=127
key=F3
lovel=87
offset=355
sample=Trombone_staccato_FF_F2_RR2.opus
tune=-10
</region>

<region>
hivel=127
key=F2
lovel=87
offset=615
sample=Trombone_staccato_FF_F1_RR2.opus
tune=-2
</region>

<region>
hivel=127
key=F#4
lovel=87
offset=410
sample=Trombone_staccato_FF_F#3_RR2.opus
tune=-19
</region>

<region>
hivel=127
key=F#3
lovel=87
sample=Trombone_staccato_FF_F#2_RR2.opus
tune=-1
</region>

<region>
hivel=127
key=F#2
lovel=87
offset=3768
sample=Trombone_staccato_FF_F#1_RR2.opus
tune=-20
</region>

<region>
hivel=127
key=E4
lovel=87
offset=1029
sample=Trombone_staccato_FF_E3_RR2.opus
tune=-16
</region>

<region>
hivel=127
key=E3
lovel=87
offset=582
sample=Trombone_staccato_FF_E2_RR2.opus
tune=-14
</region>

<region>
hikey=E2
hivel=127
lokey=C1
lovel=87
offset=8972
pitch_keycenter=E2
sample=Trombone_staccato_FF_E1_RR2.opus
tune=-34
</region>

<region>
hivel=127
key=D4
lovel=87
offset=187
sample=Trombone_staccato_FF_D3_RR2.opus
</region>

<region>
hivel=127
key=D3
lovel=87
offset=186
sample=Trombone_staccato_FF_D2_RR2.opus
tune=-14
</region>

<region>
hivel=127
key=D#4
lovel=87
offset=885
sample=Trombone_staccato_FF_D#3_RR2.opus
tune=-23
</region>

<region>
hivel=127
key=D#3
lovel=87
offset=910
sample=Trombone_staccato_FF_D#2_RR2.opus
tune=-17
</region>

<region>
hikey=D#5
hivel=127
lokey=C5
lovel=87
offset=1436
pitch_keycenter=C5
sample=Trombone_staccato_FF_C4_RR2.opus
tune=-21
</region>

<region>
hikey=C4
hivel=127
lokey=C4
lovel=87
offset=553
sample=Trombone_staccato_FF_C3_RR2.opus
tune=-3
</region>

<region>
hivel=127
key=C3
lovel=87
offset=621
sample=Trombone_staccato_FF_C2_RR2.opus
tune=-3
</region>

<region>
hivel=127
key=C#4
lovel=87
offset=433
sample=Trombone_staccato_FF_C#3_RR2.opus
tune=+4
</region>

<region>
hivel=127
key=C#3
lovel=87
offset=561
sample=Trombone_staccato_FF_C#2_RR2.opus
tune=-6
</region>

<region>
hivel=127
key=B4
lovel=87
offset=1004
sample=Trombone_staccato_FF_B3_RR2.opus
tune=-14
</region>

<region>
hivel=127
key=B3
lovel=87
offset=7063
sample=Trombone_staccato_FF_B2_RR2.opus
tune=+1
</region>

<region>
hivel=127
key=B2
lovel=87
offset=1041
sample=Trombone_staccato_FF_B1_RR2.opus
tune=-16
</region>

<region>
hivel=127
key=A4
lovel=87
offset=1036
sample=Trombone_staccato_FF_A3_RR2.opus
tune=-19
</region>

<region>
hivel=127
key=A3
lovel=87
offset=956
sample=Trombone_staccato_FF_A2_RR2.opus
tune=-7
</region>

<region>
hivel=127
key=A2
lovel=87
offset=373
sample=Trombone_staccato_FF_A1_RR2.opus
tune=-16
</region>

<region>
hivel=127
key=A#4
lovel=87
offset=458
sample=Trombone_staccato_FF_A#3_RR2.opus
tune=-9
</region>

<region>
hivel=127
key=A#3
lovel=87
sample=Trombone_staccato_FF_A#2_RR2.opus
tune=-6
</region>

<region>
hivel=127
key=A#2
lovel=87
offset=353
sample=Trombone_staccato_FF_A#1_RR2.opus
tune=-19
</region>
</group>

<group>
group_label=RR3
seq_length=4
seq_position=3

<region>
hivel=42
key=G4
lovel=0
sample=Trombone_staccato_PP_G3_RR3.opus
tune=-26
</region>

<region>
hivel=42
key=G3
lovel=0
offset=8704
sample=Trombone_staccato_PP_G2_RR3.opus
tune=-10
</region>

<region>
hivel=42
key=G2
lovel=0
offset=7559
sample=Trombone_staccato_PP_G1_RR3.opus
tune=-1
</region>

<region>
hivel=42
key=G#4
lovel=0
offset=1227
sample=Trombone_staccato_PP_G#3_RR3.opus
tune=-37
</region>

<region>
hivel=42
key=G#3
lovel=0
offset=5943
sample=Trombone_staccato_PP_G#2_RR3.opus
tune=-7
</region>

<region>
hivel=42
key=G#2
lovel=0
offset=5023
sample=Trombone_staccato_PP_G#1_RR3.opus
tune=-20
</region>

<region>
hivel=42
key=F4
lovel=0
offset=6404
sample=Trombone_staccato_PP_F3_RR3.opus
tune=-36
</region>

<region>
hivel=42
key=F3
lovel=0
offset=7423
sample=Trombone_staccato_PP_F2_RR3.opus
tune=-9
</region>

<region>
hivel=42
key=F2
lovel=0
offset=1754
sample=Trombone_staccato_PP_F1_RR3.opus
tune=-7
</region>

<region>
hivel=42
key=F#4
lovel=0
offset=3847
sample=Trombone_staccato_PP_F#3_RR3.opus
tune=-39
</region>

<region>
hivel=42
key=F#3
lovel=0
offset=6597
sample=Trombone_staccato_PP_F#2_RR3.opus
tune=-3
</region>

<region>
hivel=42
key=F#2
lovel=0
offset=6741
sample=Trombone_staccato_PP_F#1_RR3.opus
tune=-10
</region>

<region>
hivel=42
key=E4
lovel=0
offset=6148
sample=Trombone_staccato_PP_E3_RR3.opus
tune=-17
</region>

<region>
hivel=42
key=E3
lovel=0
offset=2590
sample=Trombone_staccato_PP_E2_RR3.opus
tune=-21
</region>

<region>
hikey=E2
hivel=42
lokey=C1
lovel=0
offset=5957
pitch_keycenter=E2
sample=Trombone_staccato_PP_E1_RR3.opus
tune=-13
</region>

<region>
hivel=42
key=D4
lovel=0
offset=8903
sample=Trombone_staccato_PP_D3_RR3.opus
tune=-22
</region>

<region>
hivel=42
key=D3
lovel=0
offset=1829
sample=Trombone_staccato_PP_D2_RR3.opus
tune=-18
</region>

<region>
hivel=42
key=D#4
lovel=0
offset=7238
sample=Trombone_staccato_PP_D#3_RR3.opus
tune=-35
</region>

<region>
hivel=42
key=D#3
lovel=0
offset=4246
sample=Trombone_staccato_PP_D#2_RR3.opus
tune=+14
</region>

<region>
hikey=D#5
hivel=42
lokey=C5
lovel=0
pitch_keycenter=C5
sample=Trombone_staccato_PP_C4_RR3.opus
tune=-22
</region>

<region>
hikey=C4
hivel=42
lokey=C4
lovel=0
offset=7047
sample=Trombone_staccato_PP_C3_RR3.opus
tune=-16
</region>

<region>
hivel=42
key=C3
lovel=0
offset=2460
sample=Trombone_staccato_PP_C2_RR3.opus
tune=+16
</region>

<region>
hivel=42
key=C#4
lovel=0
offset=480
sample=Trombone_staccato_PP_C#3_RR3.opus
tune=-19
</region>

<region>
hivel=42
key=C#3
lovel=0
offset=4196
sample=Trombone_staccato_PP_C#2_RR3.opus
tune=-2
</region>

<region>
hivel=42
key=B4
lovel=0
offset=290
sample=Trombone_staccato_PP_B3_RR3.opus
tune=-25
</region>

<region>
hivel=42
key=B3
lovel=0
offset=6987
sample=Trombone_staccato_PP_B2_RR3.opus
tune=-5
</region>

<region>
hivel=42
key=B2
lovel=0
offset=6688
sample=Trombone_staccato_PP_B1_RR3.opus
tune=-5
</region>

<region>
hivel=42
key=A4
lovel=0
sample=Trombone_staccato_PP_A3_RR3.opus
tune=-21
</region>

<region>
hivel=42
key=A3
lovel=0
offset=310
sample=Trombone_staccato_PP_A2_RR3.opus
tune=-1
</region>

<region>
hivel=42
key=A2
lovel=0
offset=3542
sample=Trombone_staccato_PP_A1_RR3.opus
tune=-8
</region>

<region>
hivel=42
key=A#4
lovel=0
offset=401
sample=Trombone_staccato_PP_A#3_RR3.opus
tune=-28
</region>

<region>
hivel=42
key=A#3
lovel=0
offset=9600
sample=Trombone_staccato_PP_A#2_RR3.opus
tune=+4
</region>

<region>
hivel=42
key=A#2
lovel=0
offset=2057
sample=Trombone_staccato_PP_A#1_RR3.opus
tune=-6
</region>

<region>
hivel=86
key=G4
lovel=43
offset=111
sample=Trombone_staccato_MF_G3_RR3.opus
tune=-17
</region>

<region>
hivel=86
key=G3
lovel=43
offset=6889
sample=Trombone_staccato_MF_G2_RR3.opus
tune=-17
</region>

<region>
hivel=86
key=G2
lovel=43
offset=1375
sample=Trombone_staccato_MF_G1_RR3.opus
tune=-30
</region>

<region>
hivel=86
key=G#4
lovel=43
offset=823
sample=Trombone_staccato_MF_G#3_RR3.opus
tune=-30
</region>

<region>
hivel=86
key=G#3
lovel=43
offset=272
sample=Trombone_staccato_MF_G#2_RR3.opus
tune=-7
</region>

<region>
hivel=86
key=G#2
lovel=43
offset=3635
sample=Trombone_staccato_MF_G#1_RR3.opus
tune=-44
</region>

<region>
hivel=86
key=F4
lovel=43
offset=7740
sample=Trombone_staccato_MF_F3_RR3.opus
tune=-21
</region>

<region>
hivel=86
key=F3
lovel=43
offset=5979
sample=Trombone_staccato_MF_F2_RR3.opus
tune=-26
</region>

<region>
hivel=86
key=F2
lovel=43
offset=9005
sample=Trombone_staccato_MF_F1_RR3.opus
tune=-10
</region>

<region>
hivel=86
key=F#4
lovel=43
offset=331
sample=Trombone_staccato_MF_F#3_RR3.opus
tune=-17
</region>

<region>
hivel=86
key=F#3
lovel=43
offset=6168
sample=Trombone_staccato_MF_F#2_RR3.opus
tune=-14
</region>

<region>
hivel=86
key=F#2
lovel=43
offset=3855
sample=Trombone_staccato_MF_F#1_RR3.opus
tune=-30
</region>

<region>
hivel=86
key=E4
lovel=43
offset=5875
sample=Trombone_staccato_MF_E3_RR3.opus
tune=-19
</region>

<region>
hivel=86
key=E3
lovel=43
offset=6013
sample=Trombone_staccato_MF_E2_RR3.opus
tune=-14
</region>

<region>
hikey=E2
hivel=86
lokey=C1
lovel=43
offset=5688
pitch_keycenter=E2
sample=Trombone_staccato_MF_E1_RR3.opus
tune=-22
</region>

<region>
hivel=86
key=D4
lovel=43
offset=377
sample=Trombone_staccato_MF_D3_RR3.opus
tune=-23
</region>

<region>
hivel=86
key=D3
lovel=43
offset=1092
sample=Trombone_staccato_MF_D2_RR3.opus
tune=-12
</region>

<region>
hivel=86
key=D#4
lovel=43
offset=977
sample=Trombone_staccato_MF_D#3_RR3.opus
tune=-28
</region>

<region>
hivel=86
key=D#3
lovel=43
offset=1941
sample=Trombone_staccato_MF_D#2_RR3.opus
tune=-30
</region>

<region>
hikey=D#5
hivel=86
lokey=C5
lovel=43
offset=7847
pitch_keycenter=C5
sample=Trombone_staccato_MF_C4_RR3.opus
tune=-16
</region>

<region>
hikey=C4
hivel=86
lokey=C4
lovel=43
offset=7770
sample=Trombone_staccato_MF_C3_RR3.opus
tune=-5
</region>

<region>
hivel=86
key=C3
lovel=43
offset=4125
sample=Trombone_staccato_MF_C2_RR3.opus
tune=-6
</region>

<region>
hivel=86
key=C#4
lovel=43
offset=7065
sample=Trombone_staccato_MF_C#3_RR3.opus
tune=-11
</region>

<region>
hivel=86
key=C#3
lovel=43
offset=4558
sample=Trombone_staccato_MF_C#2_RR3.opus
tune=-31
</region>

<region>
hivel=86
key=B4
lovel=43
offset=196
sample=Trombone_staccato_MF_B3_RR3.opus
tune=-16
</region>

<region>
hivel=86
key=B3
lovel=43
offset=703
sample=Trombone_staccato_MF_B2_RR3.opus
tune=-9
</region>

<region>
hivel=86
key=B2
lovel=43
offset=4901
sample=Trombone_staccato_MF_B1_RR3.opus
tune=-35
</region>

<region>
hivel=86
key=A4
lovel=43
offset=473
sample=Trombone_staccato_MF_A3_RR3.opus
tune=-24
</region>

<region>
hivel=86
key=A3
lovel=43
offset=317
sample=Trombone_staccato_MF_A2_RR3.opus
tune=-14
</region>

<region>
hivel=86
key=A2
lovel=43
offset=4844
sample=Trombone_staccato_MF_A1_RR3.opus
tune=-26
</region>

<region>
hivel=86
key=A#4
lovel=43
offset=5438
sample=Trombone_staccato_MF_A#3_RR3.opus
tune=-18
</region>

<region>
hivel=86
key=A#3
lovel=43
offset=342
sample=Trombone_staccato_MF_A#2_RR3.opus
tune=-10
</region>

<region>
hivel=86
key=A#2
lovel=43
offset=3790
sample=Trombone_staccato_MF_A#1_RR3.opus
tune=-21
</region>

<region>
hivel=127
key=G4
lovel=87
offset=804
sample=Trombone_staccato_FF_G3_RR3.opus
tune=-16
</region>

<region>
hivel=127
key=G3
lovel=87
offset=5597
sample=Trombone_staccato_FF_G2_RR3.opus
tune=-10
</region>

<region>
hivel=127
key=G2
lovel=87
offset=871
sample=Trombone_staccato_FF_G1_RR3.opus
tune=-21
</region>

<region>
hivel=127
key=G#4
lovel=87
offset=5045
sample=Trombone_staccato_FF_G#3_RR3.opus
tune=-20
</region>

<region>
hivel=127
key=G#3
lovel=87
offset=467
sample=Trombone_staccato_FF_G#2_RR3.opus
tune=-25
</region>

<region>
hivel=127
key=G#2
lovel=87
offset=454
sample=Trombone_staccato_FF_G#1_RR3.opus
tune=-19
</region>

<region>
hivel=127
key=F4
lovel=87
offset=7412
sample=Trombone_staccato_FF_F3_RR3.opus
tune=-21
</region>

<region>
hivel=127
key=F3
lovel=87
offset=343
sample=Trombone_staccato_FF_F2_RR3.opus
tune=-14
</region>

<region>
hivel=127
key=F2
lovel=87
offset=171
sample=Trombone_staccato_FF_F1_RR3.opus
tune=-1
</region>

<region>
hivel=127
key=F#4
lovel=87
offset=429
sample=Trombone_staccato_FF_F#3_RR3.opus
tune=-21
</region>

<region>
hivel=127
key=F#3
lovel=87
sample=Trombone_staccato_FF_F#2_RR3.opus
</region>

<region>
hivel=127
key=F#2
lovel=87
offset=5197
sample=Trombone_staccato_FF_F#1_RR3.opus
tune=-24
</region>

<region>
hivel=127
key=E4
lovel=87
offset=724
sample=Trombone_staccato_FF_E3_RR3.opus
tune=-17
</region>

<region>
hivel=127
key=E3
lovel=87
offset=130
sample=Trombone_staccato_FF_E2_RR3.opus
tune=-13
</region>

<region>
hikey=E2
hivel=127
lokey=C1
lovel=87
offset=7429
pitch_keycenter=E2
sample=Trombone_staccato_FF_E1_RR3.opus
tune=-33
</region>

<region>
hivel=127
key=D4
lovel=87
offset=202
sample=Trombone_staccato_FF_D3_RR3.opus
tune=+1
</region>

<region>
hivel=127
key=D3
lovel=87
offset=531
sample=Trombone_staccato_FF_D2_RR3.opus
tune=-2
</region>

<region>
hivel=127
key=D#4
lovel=87
offset=6582
sample=Trombone_staccato_FF_D#3_RR3.opus
tune=-18
</region>

<region>
hivel=127
key=D#3
lovel=87
sample=Trombone_staccato_FF_D#2_RR3.opus
tune=-14
</region>

<region>
hikey=D#5
hivel=127
lokey=C5
lovel=87
offset=1343
pitch_keycenter=C5
sample=Trombone_staccato_FF_C4_RR3.opus
tune=-16
</region>

<region>
hikey=C4
hivel=127
lokey=C4
lovel=87
offset=550
sample=Trombone_staccato_FF_C3_RR3.opus
tune=-4
</region>

<region>
hivel=127
key=C3
lovel=87
offset=619
sample=Trombone_staccato_FF_C2_RR3.opus
tune=+9
</region>

<region>
hivel=127
key=C#4
lovel=87
offset=434
sample=Trombone_staccato_FF_C#3_RR3.opus
tune=+5
</region>

<region>
hivel=127
key=C#3
lovel=87
sample=Trombone_staccato_FF_C#2_RR3.opus
tune=-9
</region>

<region>
hivel=127
key=B4
lovel=87
offset=1185
sample=Trombone_staccato_FF_B3_RR3.opus
tune=-13
</region>

<region>
hivel=127
key=B3
lovel=87
offset=5545
sample=Trombone_staccato_FF_B2_RR3.opus
tune=-9
</region>

<region>
hivel=127
key=B2
lovel=87
offset=1042
sample=Trombone_staccato_FF_B1_RR3.opus
tune=-17
</region>

<region>
hivel=127
key=A4
lovel=87
offset=1037
sample=Trombone_staccato_FF_A3_RR3.opus
tune=-11
</region>

<region>
hivel=127
key=A3
lovel=87
offset=632
sample=Trombone_staccato_FF_A2_RR3.opus
tune=-6
</region>

<region>
hivel=127
key=A2
lovel=87
offset=392
sample=Trombone_staccato_FF_A1_RR3.opus
tune=-14
</region>

<region>
hivel=127
key=A#4
lovel=87
offset=772
sample=Trombone_staccato_FF_A#3_RR3.opus
tune=-8
</region>

<region>
hivel=127
key=A#3
lovel=87
offset=759
sample=Trombone_staccato_FF_A#2_RR3.opus
tune=-2
</region>

<region>
hivel=127
key=A#2
lovel=87
offset=355
sample=Trombone_staccato_FF_A#1_RR3.opus
tune=-19
</region>
</group>

<group>
group_label=RR4
seq_length=4
seq_position=4

<region>
hivel=42
key=G4
lovel=0
offset=7134
sample=Trombone_staccato_PP_G3_RR4.opus
tune=-22
</region>

<region>
hivel=42
key=G3
lovel=0
offset=6884
sample=Trombone_staccato_PP_G2_RR4.opus
tune=-17
</region>

<region>
hivel=42
key=G2
lovel=0
offset=7523
sample=Trombone_staccato_PP_G1_RR4.opus
tune=-6
</region>

<region>
hivel=42
key=G#4
lovel=0
offset=6553
sample=Trombone_staccato_PP_G#3_RR4.opus
tune=-37
</region>

<region>
hivel=42
key=G#3
lovel=0
offset=1774
sample=Trombone_staccato_PP_G#2_RR4.opus
tune=-9
</region>

<region>
hivel=42
key=G#2
lovel=0
offset=5298
sample=Trombone_staccato_PP_G#1_RR4.opus
tune=-9
</region>

<region>
hivel=42
key=F4
lovel=0
offset=6312
sample=Trombone_staccato_PP_F3_RR4.opus
tune=-33
</region>

<region>
hivel=42
key=F3
lovel=0
offset=6149
sample=Trombone_staccato_PP_F2_RR4.opus
tune=-15
</region>

<region>
hivel=42
key=F2
lovel=0
offset=8288
sample=Trombone_staccato_PP_F1_RR4.opus
tune=-17
</region>

<region>
hivel=42
key=F#4
lovel=0
offset=4448
sample=Trombone_staccato_PP_F#3_RR4.opus
tune=-36
</region>

<region>
hivel=42
key=F#3
lovel=0
offset=8457
sample=Trombone_staccato_PP_F#2_RR4.opus
tune=+3
</region>

<region>
hivel=42
key=F#2
lovel=0
offset=7221
sample=Trombone_staccato_PP_F#1_RR4.opus
tune=-6
</region>

<region>
hivel=42
key=E4
lovel=0
offset=6125
sample=Trombone_staccato_PP_E3_RR4.opus
tune=-16
</region>

<region>
hivel=42
key=E3
lovel=0
offset=2057
sample=Trombone_staccato_PP_E2_RR4.opus
tune=-13
</region>

<region>
hikey=E2
hivel=42
lokey=C1
lovel=0
offset=7871
pitch_keycenter=E2
sample=Trombone_staccato_PP_E1_RR4.opus
tune=-17
</region>

<region>
hivel=42
key=D4
lovel=0
offset=7152
sample=Trombone_staccato_PP_D3_RR4.opus
tune=-23
</region>

<region>
hivel=42
key=D3
lovel=0
offset=2647
sample=Trombone_staccato_PP_D2_RR4.opus
tune=-20
</region>

<region>
hivel=42
key=D#4
lovel=0
offset=10485
sample=Trombone_staccato_PP_D#3_RR4.opus
tune=-35
</region>

<region>
hivel=42
key=D#3
lovel=0
offset=5646
sample=Trombone_staccato_PP_D#2_RR4.opus
tune=+10
</region>

<region>
hikey=D#5
hivel=42
lokey=C5
lovel=0
offset=415
pitch_keycenter=C5
sample=Trombone_staccato_PP_C4_RR4.opus
tune=-28
</region>

<region>
hikey=C4
hivel=42
lokey=C4
lovel=0
offset=6127
sample=Trombone_staccato_PP_C3_RR4.opus
tune=-13
</region>

<region>
hivel=42
key=C3
lovel=0
offset=653
sample=Trombone_staccato_PP_C2_RR4.opus
tune=+23
</region>

<region>
hivel=42
key=C#4
lovel=0
offset=68
sample=Trombone_staccato_PP_C#3_RR4.opus
tune=-27
</region>

<region>
hivel=42
key=C#3
lovel=0
offset=5206
sample=Trombone_staccato_PP_C#2_RR4.opus
tune=+4
</region>

<region>
hivel=42
key=B4
lovel=0
offset=9
sample=Trombone_staccato_PP_B3_RR4.opus
tune=-26
</region>

<region>
hivel=42
key=B3
lovel=0
offset=776
sample=Trombone_staccato_PP_B2_RR4.opus
tune=-3
</region>

<region>
hivel=42
key=B2
lovel=0
offset=6593
sample=Trombone_staccato_PP_B1_RR4.opus
tune=-8
</region>

<region>
hivel=42
key=A4
lovel=0
sample=Trombone_staccato_PP_A3_RR4.opus
tune=-21
</region>

<region>
hivel=42
key=A3
lovel=0
offset=1300
sample=Trombone_staccato_PP_A2_RR4.opus
tune=+4
</region>

<region>
hivel=42
key=A2
lovel=0
offset=6113
sample=Trombone_staccato_PP_A1_RR4.opus
tune=-7
</region>

<region>
hivel=42
key=A#4
lovel=0
offset=309
sample=Trombone_staccato_PP_A#3_RR4.opus
tune=-23
</region>

<region>
hivel=42
key=A#3
lovel=0
offset=1481
sample=Trombone_staccato_PP_A#2_RR4.opus
tune=-1
</region>

<region>
hivel=42
key=A#2
lovel=0
offset=4913
sample=Trombone_staccato_PP_A#1_RR4.opus
tune=-11
</region>

<region>
hivel=86
key=G4
lovel=43
offset=155
sample=Trombone_staccato_MF_G3_RR4.opus
tune=-20
</region>

<region>
hivel=86
key=G3
lovel=43
offset=6181
sample=Trombone_staccato_MF_G2_RR4.opus
tune=-12
</region>

<region>
hivel=86
key=G2
lovel=43
offset=535
sample=Trombone_staccato_MF_G1_RR4.opus
tune=-24
</region>

<region>
hivel=86
key=G#4
lovel=43
offset=327
sample=Trombone_staccato_MF_G#3_RR4.opus
tune=-32
</region>

<region>
hivel=86
key=G#3
lovel=43
offset=271
sample=Trombone_staccato_MF_G#2_RR4.opus
tune=-9
</region>

<region>
hivel=86
key=G#2
lovel=43
offset=4543
sample=Trombone_staccato_MF_G#1_RR4.opus
tune=-35
</region>

<region>
hivel=86
key=F4
lovel=43
offset=8271
sample=Trombone_staccato_MF_F3_RR4.opus
tune=-15
</region>

<region>
hivel=86
key=F3
lovel=43
sample=Trombone_staccato_MF_F2_RR4.opus
tune=-21
</region>

<region>
hivel=86
key=F2
lovel=43
offset=7752
sample=Trombone_staccato_MF_F1_RR4.opus
tune=-11
</region>

<region>
hivel=86
key=F#4
lovel=43
offset=410
sample=Trombone_staccato_MF_F#3_RR4.opus
tune=-17
</region>

<region>
hivel=86
key=F#3
lovel=43
offset=7328
sample=Trombone_staccato_MF_F#2_RR4.opus
tune=-12
</region>

<region>
hivel=86
key=F#2
lovel=43
offset=950
sample=Trombone_staccato_MF_F#1_RR4.opus
tune=-24
</region>

<region>
hivel=86
key=E4
lovel=43
offset=96
sample=Trombone_staccato_MF_E3_RR4.opus
tune=-20
</region>

<region>
hivel=86
key=E3
lovel=43
offset=434
sample=Trombone_staccato_MF_E2_RR4.opus
tune=-9
</region>

<region>
hikey=E2
hivel=86
lokey=C1
lovel=43
offset=8523
pitch_keycenter=E2
sample=Trombone_staccato_MF_E1_RR4.opus
tune=-30
</region>

<region>
hivel=86
key=D4
lovel=43
sample=Trombone_staccato_MF_D3_RR4.opus
tune=-21
</region>

<region>
hivel=86
key=D3
lovel=43
offset=7153
sample=Trombone_staccato_MF_D2_RR4.opus
tune=-11
</region>

<region>
hivel=86
key=D#4
lovel=43
offset=1266
sample=Trombone_staccato_MF_D#3_RR4.opus
tune=-31
</region>

<region>
hivel=86
key=D#3
lovel=43
offset=4475
sample=Trombone_staccato_MF_D#2_RR4.opus
tune=-28
</region>

<region>
hikey=D#5
hivel=86
lokey=C5
lovel=43
offset=497
pitch_keycenter=C5
sample=Trombone_staccato_MF_C4_RR4.opus
tune=-23
</region>

<region>
hikey=C4
hivel=86
lokey=C4
lovel=43
offset=7572
sample=Trombone_staccato_MF_C3_RR4.opus
tune=-7
</region>

<region>
hivel=86
key=C3
lovel=43
offset=5078
sample=Trombone_staccato_MF_C2_RR4.opus
tune=-4
</region>

<region>
hivel=86
key=C#4
lovel=43
offset=837
sample=Trombone_staccato_MF_C#3_RR4.opus
tune=-12
</region>

<region>
hivel=86
key=C#3
lovel=43
offset=958
sample=Trombone_staccato_MF_C#2_RR4.opus
tune=-29
</region>

<region>
hivel=86
key=B4
lovel=43
offset=479
sample=Trombone_staccato_MF_B3_RR4.opus
tune=-26
</region>

<region>
hivel=86
key=B3
lovel=43
offset=506
sample=Trombone_staccato_MF_B2_RR4.opus
tune=-5
</region>

<region>
hivel=86
key=B2
lovel=43
offset=5072
sample=Trombone_staccato_MF_B1_RR4.opus
tune=-33
</region>

<region>
hivel=86
key=A4
lovel=43
offset=654
sample=Trombone_staccato_MF_A3_RR4.opus
tune=-25
</region>

<region>
hivel=86
key=A3
lovel=43
sample=Trombone_staccato_MF_A2_RR4.opus
tune=-9
</region>

<region>
hivel=86
key=A2
lovel=43
offset=4354
sample=Trombone_staccato_MF_A1_RR4.opus
tune=-21
</region>

<region>
hivel=86
key=A#4
lovel=43
offset=678
sample=Trombone_staccato_MF_A#3_RR4.opus
tune=-21
</region>

<region>
hivel=86
key=A#3
lovel=43
offset=52
sample=Trombone_staccato_MF_A#2_RR4.opus
tune=-19
</region>

<region>
hivel=86
key=A#2
lovel=43
offset=4983
sample=Trombone_staccato_MF_A#1_RR4.opus
tune=-19
</region>

<region>
hivel=127
key=G4
lovel=87
offset=581
sample=Trombone_staccato_FF_G3_RR4.opus
tune=-18
</region>

<region>
hivel=127
key=G3
lovel=87
offset=5393
sample=Trombone_staccato_FF_G2_RR4.opus
tune=-7
</region>

<region>
hivel=127
key=G2
lovel=87
offset=489
sample=Trombone_staccato_FF_G1_RR4.opus
tune=-24
</region>

<region>
hivel=127
key=G#4
lovel=87
offset=356
sample=Trombone_staccato_FF_G#3_RR4.opus
tune=-23
</region>

<region>
hivel=127
key=G#3
lovel=87
offset=4329
sample=Trombone_staccato_FF_G#2_RR4.opus
tune=-26
</region>

<region>
hivel=127
key=G#2
lovel=87
offset=951
sample=Trombone_staccato_FF_G#1_RR4.opus
tune=-13
</region>

<region>
hivel=127
key=F4
lovel=87
offset=347
sample=Trombone_staccato_FF_F3_RR4.opus
tune=-21
</region>

<region>
hivel=127
key=F3
lovel=87
offset=6026
sample=Trombone_staccato_FF_F2_RR4.opus
tune=-13
</region>

<region>
hivel=127
key=F2
lovel=87
offset=616
sample=Trombone_staccato_FF_F1_RR4.opus
tune=-5
</region>

<region>
hivel=127
key=F#4
lovel=87
offset=341
sample=Trombone_staccato_FF_F#3_RR4.opus
tune=-21
</region>

<region>
hivel=127
key=F#3
lovel=87
offset=42
sample=Trombone_staccato_FF_F#2_RR4.opus
tune=-5
</region>

<region>
hivel=127
key=F#2
lovel=87
offset=5464
sample=Trombone_staccato_FF_F#1_RR4.opus
tune=-25
</region>

<region>
hivel=127
key=E4
lovel=87
offset=1035
sample=Trombone_staccato_FF_E3_RR4.opus
tune=-15
</region>

<region>
hivel=127
key=E3
lovel=87
offset=965
sample=Trombone_staccato_FF_E2_RR4.opus
tune=-16
</region>

<region>
hikey=E2
hivel=127
lokey=C1
lovel=87
offset=6207
pitch_keycenter=E2
sample=Trombone_staccato_FF_E1_RR4.opus
tune=-29
</region>

<region>
hivel=127
key=D4
lovel=87
offset=332
sample=Trombone_staccato_FF_D3_RR4.opus
tune=+5
</region>

<region>
hivel=127
key=D3
lovel=87
offset=521
sample=Trombone_staccato_FF_D2_RR4.opus
tune=-8
</region>

<region>
hivel=127
key=D#4
lovel=87
offset=672
sample=Trombone_staccato_FF_D#3_RR4.opus
tune=-16
</region>

<region>
hivel=127
key=D#3
lovel=87
offset=455
sample=Trombone_staccato_FF_D#2_RR4.opus
tune=-18
</region>

<region>
hikey=D#5
hivel=127
lokey=C5
lovel=87
offset=590
pitch_keycenter=C5
sample=Trombone_staccato_FF_C4_RR4.opus
tune=-15
</region>

<region>
hikey=C4
hivel=127
lokey=C4
lovel=87
offset=87
sample=Trombone_staccato_FF_C3_RR4.opus
tune=-5
</region>

<region>
hivel=127
key=C3
lovel=87
offset=3468
sample=Trombone_staccato_FF_C2_RR4.opus
tune=+6
</region>

<region>
hivel=127
key=C#4
lovel=87
offset=440
sample=Trombone_staccato_FF_C#3_RR4.opus
tune=+9
</region>

<region>
hivel=127
key=C#3
lovel=87
offset=259
sample=Trombone_staccato_FF_C#2_RR4.opus
tune=-12
</region>

<region>
hivel=127
key=B4
lovel=87
offset=1529
sample=Trombone_staccato_FF_B3_RR4.opus
tune=-16
</region>

<region>
hivel=127
key=B3
lovel=87
offset=732
sample=Trombone_staccato_FF_B2_RR4.opus
tune=-5
</region>

<region>
hivel=127
key=B2
lovel=87
offset=791
sample=Trombone_staccato_FF_B1_RR4.opus
tune=-11
</region>

<region>
hivel=127
key=A4
lovel=87
offset=537
sample=Trombone_staccato_FF_A3_RR4.opus
tune=-16
</region>

<region>
hivel=127
key=A3
lovel=87
offset=424
sample=Trombone_staccato_FF_A2_RR4.opus
tune=-4
</region>

<region>
hivel=127
key=A2
lovel=87
offset=390
sample=Trombone_staccato_FF_A1_RR4.opus
tune=-18
</region>

<region>
hivel=127
key=A#4
lovel=87
offset=970
sample=Trombone_staccato_FF_A#3_RR4.opus
tune=-11
</region>

<region>
hivel=127
key=A#3
lovel=87
offset=357
sample=Trombone_staccato_FF_A#2_RR4.opus
tune=-3
</region>

<region>
hivel=127
key=A#2
lovel=87
sample=Trombone_staccato_FF_A#1_RR4.opus
tune=-18
</region>
</group>